<?xml version="1.0" encoding="UTF-8" standalone="no"?>
<svg
   width="16"
   height="16"
   fill="currentColor"
   class="bi bi-box-arrow-right"
   viewBox="0 0 16 16"
   version="1.1"
   id="svg23"
   sodipodi:docname="box-arrow-right.svg"
   inkscape:version="1.1.2 (b8e25be833, 2022-02-05)"
   xmlns:inkscape="http://www.inkscape.org/namespaces/inkscape"
   xmlns:sodipodi="http://sodipodi.sourceforge.net/DTD/sodipodi-0.dtd"
   xmlns="http://www.w3.org/2000/svg"
   xmlns:svg="http://www.w3.org/2000/svg">
  <defs
     id="defs27">
    <filter
       style="color-interpolation-filters:sRGB;"
       inkscape:label="Invert"
       id="filter313"
       x="0"
       y="0"
       width="1"
       height="1">
      <feColorMatrix
         values="-1 0 0 0 1 0 -1 0 0 1 0 0 -1 0 1 0.21 0.72 0.07 1 0 "
         result="fbSourceGraphic"
         id="feColorMatrix311" />
      <feColorMatrix
         result="fbSourceGraphicAlpha"
         in="fbSourceGraphic"
         values="0 0 0 1 0 0 0 0 1 0 0 0 0 1 0 0 0 0 1 0"
         id="feColorMatrix333" />
      <feColorMatrix
         id="feColorMatrix335"
         values="1 0 0 0 1 0 1 0 0 1 0 0 1 0 1 0.21 0.72 0.07 1 0 "
         result="fbSourceGraphic"
         in="fbSourceGraphic" />
      <feColorMatrix
         result="fbSourceGraphicAlpha"
         in="fbSourceGraphic"
         values="0 0 0 1 0 0 0 0 1 0 0 0 0 1 0 0 0 0 1 0"
         id="feColorMatrix355" />
      <feColorMatrix
         id="feColorMatrix357"
         values="1 0 0 0 1 0 1 0 0 1 0 0 1 0 1 0.21 0.72 0.07 1 0 "
         result="fbSourceGraphic"
         in="fbSourceGraphic" />
      <feColorMatrix
         result="fbSourceGraphicAlpha"
         in="fbSourceGraphic"
         values="0 0 0 1 0 0 0 0 1 0 0 0 0 1 0 0 0 0 1 0"
         id="feColorMatrix14" />
      <feColorMatrix
         id="feColorMatrix16"
         values="1 0 0 0 1 0 1 0 0 1 0 0 1 0 1 0.21 0.72 0.07 1 0 "
         result="fbSourceGraphic"
         in="fbSourceGraphic" />
      <feColorMatrix
         result="fbSourceGraphicAlpha"
         in="fbSourceGraphic"
         values="0 0 0 1 0 0 0 0 1 0 0 0 0 1 0 0 0 0 1 0"
         id="feColorMatrix17" />
      <feColorMatrix
         id="feColorMatrix19"
         values="1 0 0 0 1 0 1 0 0 1 0 0 1 0 1 0.21 0.72 0.07 1 0 "
         result="color2"
         in="fbSourceGraphic" />
    </filter>
  </defs>
  <sodipodi:namedview
     id="namedview25"
     pagecolor="#505050"
     bordercolor="#eeeeee"
     borderopacity="1"
     inkscape:pageshadow="1"
     inkscape:pageopacity="1"
     inkscape:pagecheckerboard="1"
     showgrid="false"
     inkscape:zoom="50.5"
     inkscape:cx="7.990099"
     inkscape:cy="8"
     inkscape:window-width="1920"
     inkscape:window-height="1017"
     inkscape:window-x="-8"
     inkscape:window-y="-8"
     inkscape:window-maximized="1"
     inkscape:current-layer="svg23" />
  <g
     id="g309"
     style="filter:url(#filter313)">
    <path
       fill-rule="evenodd"
       d="M10 12.5a.5.5 0 0 1-.5.5h-8a.5.5 0 0 1-.5-.5v-9a.5.5 0 0 1 .5-.5h8a.5.5 0 0 1 .5.5v2a.5.5 0 0 0 1 0v-2A1.5 1.5 0 0 0 9.5 2h-8A1.5 1.5 0 0 0 0 3.5v9A1.5 1.5 0 0 0 1.5 14h8a1.5 1.5 0 0 0 1.5-1.5v-2a.5.5 0 0 0-1 0v2z"
       id="path19" />
    <path
       fill-rule="evenodd"
       d="M15.854 8.354a.5.5 0 0 0 0-.708l-3-3a.5.5 0 0 0-.708.708L14.293 7.5H5.5a.5.5 0 0 0 0 1h8.793l-2.147 2.146a.5.5 0 0 0 .708.708l3-3z"
       id="path21" />
  </g>
</svg>
