<?xml version="1.0" encoding="UTF-8" standalone="no"?>
<svg
   width="16"
   height="16"
   fill="currentColor"
   class="bi bi-journals"
   viewBox="0 0 16 16"
   version="1.1"
   id="svg6"
   sodipodi:docname="journals.svg"
   inkscape:version="1.1.2 (b8e25be833, 2022-02-05)"
   xmlns:inkscape="http://www.inkscape.org/namespaces/inkscape"
   xmlns:sodipodi="http://sodipodi.sourceforge.net/DTD/sodipodi-0.dtd"
   xmlns="http://www.w3.org/2000/svg"
   xmlns:svg="http://www.w3.org/2000/svg">
  <defs
     id="defs10">
    <filter
       style="color-interpolation-filters:sRGB;"
       inkscape:label="Invert"
       id="filter18"
       x="0"
       y="0"
       width="1"
       height="1">
      <feColorMatrix
         values="-1 0 0 0 1 0 -1 0 0 1 0 0 -1 0 1 0.21 0.72 0.07 1 0 "
         result="color2"
         id="feColorMatrix16" />
    </filter>
  </defs>
  <sodipodi:namedview
     id="namedview8"
     pagecolor="#505050"
     bordercolor="#eeeeee"
     borderopacity="1"
     inkscape:pageshadow="0"
     inkscape:pageopacity="0"
     inkscape:pagecheckerboard="0"
     showgrid="false"
     inkscape:zoom="51.9375"
     inkscape:cx="8"
     inkscape:cy="8.009627"
     inkscape:window-width="1920"
     inkscape:window-height="1017"
     inkscape:window-x="-8"
     inkscape:window-y="-8"
     inkscape:window-maximized="1"
     inkscape:current-layer="svg6" />
  <g
     id="g14"
     style="filter:url(#filter18)">
    <path
       d="M5 0h8a2 2 0 0 1 2 2v10a2 2 0 0 1-2 2 2 2 0 0 1-2 2H3a2 2 0 0 1-2-2h1a1 1 0 0 0 1 1h8a1 1 0 0 0 1-1V4a1 1 0 0 0-1-1H3a1 1 0 0 0-1 1H1a2 2 0 0 1 2-2h8a2 2 0 0 1 2 2v9a1 1 0 0 0 1-1V2a1 1 0 0 0-1-1H5a1 1 0 0 0-1 1H3a2 2 0 0 1 2-2z"
       id="path2" />
    <path
       d="M1 6v-.5a.5.5 0 0 1 1 0V6h.5a.5.5 0 0 1 0 1h-2a.5.5 0 0 1 0-1H1zm0 3v-.5a.5.5 0 0 1 1 0V9h.5a.5.5 0 0 1 0 1h-2a.5.5 0 0 1 0-1H1zm0 2.5v.5H.5a.5.5 0 0 0 0 1h2a.5.5 0 0 0 0-1H2v-.5a.5.5 0 0 0-1 0z"
       id="path4" />
  </g>
</svg>
